<svg width="27" height="28" viewBox="0 0 27 28" fill="none" xmlns="http://www.w3.org/2000/svg">
<path d="M24 0.5C24.7956 0.5 25.5587 0.81607 26.1213 1.37868C26.6839 1.94129 27 2.70435 27 3.5V24.5C27 25.2956 26.6839 26.0587 26.1213 26.6213C25.5587 27.1839 24.7956 27.5 24 27.5H3C2.20435 27.5 1.44129 27.1839 0.87868 26.6213C0.31607 26.0587 0 25.2956 0 24.5V3.5C0 2.70435 0.31607 1.94129 0.87868 1.37868C1.44129 0.81607 2.20435 0.5 3 0.5H24ZM23.25 23.75V15.8C23.25 14.5031 22.7348 13.2593 21.8178 12.3422C20.9007 11.4252 19.6569 10.91 18.36 10.91C17.085 10.91 15.6 11.69 14.88 12.86V11.195H10.695V23.75H14.88V16.355C14.88 15.2 15.81 14.255 16.965 14.255C17.522 14.255 18.0561 14.4762 18.4499 14.8701C18.8438 15.2639 19.065 15.798 19.065 16.355V23.75H23.25ZM5.82 8.84C6.48835 8.84 7.12932 8.5745 7.60191 8.10191C8.0745 7.62932 8.34 6.98835 8.34 6.32C8.34 4.925 7.215 3.785 5.82 3.785C5.14768 3.785 4.50289 4.05208 4.02748 4.52748C3.55208 5.00289 3.285 5.64768 3.285 6.32C3.285 7.715 4.425 8.84 5.82 8.84M7.905 23.75V11.195H3.75V23.75H7.905V23.75Z" fill="white"/>
</svg>
