<svg width="17" height="9" viewBox="0 0 17 9" fill="none" xmlns="http://www.w3.org/2000/svg">
<path d="M13.2751 0.272338L16.4767 3.47479C16.6443 3.64998 16.7383 3.88622 16.7383 4.13237C16.7383 4.37852 16.6443 4.61476 16.4767 4.78994L13.2751 7.98348C13.106 8.15788 12.8767 8.25586 12.6375 8.25586C12.3984 8.25586 12.1691 8.15788 12 7.98348C11.8309 7.80908 11.7359 7.57255 11.7359 7.32591C11.7359 7.07927 11.8309 6.84273 12 6.66833L13.664 5.06071L1.40005 5.06075C1.16134 5.06075 0.932412 4.96295 0.763619 4.78885C0.594827 4.61475 0.5 4.37863 0.5 4.13242C0.5 3.8862 0.594827 3.65008 0.763619 3.47598C0.932412 3.30188 1.16134 3.20407 1.40005 3.20407L13.664 3.20403L12 1.58749C11.8309 1.41309 11.7359 1.17655 11.7359 0.929916C11.7359 0.683277 11.8309 0.446738 12 0.272338C12.1691 0.0979386 12.3984 -3.91006e-05 12.6375 -3.91006e-05C12.8767 -3.91006e-05 13.106 0.0979386 13.2751 0.272338Z" fill="#303030"/>
</svg>
