<svg width="221" height="57" viewBox="0 0 221 57" fill="none" xmlns="http://www.w3.org/2000/svg">
<path d="M95.8517 42.0174H90.0781L79.6781 24.264V42.0174H74.2806V15.0488H80.0542L90.4542 32.821V15.0488H95.8517V42.0174Z" fill="white"/>
<path d="M104.916 49.6904V44.5186L107.775 44.5563C108.277 44.5563 108.759 44.4748 109.223 44.3118C109.687 44.1488 110.113 43.9231 110.502 43.6347C110.903 43.3464 111.254 43.0016 111.555 42.6004C111.856 42.2117 112.101 41.7854 112.289 41.3215C111.724 41.5598 111.148 41.798 110.558 42.0362C109.982 42.2744 109.399 42.3935 108.809 42.3935C107.568 42.3935 106.402 42.1741 105.311 41.7353C104.221 41.2965 103.261 40.6758 102.434 39.8734C101.619 39.0585 100.973 38.0743 100.497 36.9208C100.033 35.7548 99.8011 34.4509 99.8011 33.0091V21.8756H104.916V33.0091C104.916 33.7237 105.017 34.3506 105.217 34.8897C105.431 35.4163 105.713 35.8614 106.064 36.225C106.415 36.576 106.822 36.8393 107.286 37.0148C107.763 37.1904 108.27 37.2781 108.809 37.2781C109.336 37.2781 109.831 37.159 110.295 36.9208C110.772 36.6701 111.185 36.3441 111.536 35.9429C111.887 35.5417 112.163 35.0903 112.364 34.5888C112.564 34.0748 112.665 33.5482 112.665 33.0091V21.8756H117.837V39.4785C117.824 40.8953 117.548 42.2242 117.009 43.4655C116.47 44.7067 115.73 45.7912 114.79 46.719C113.862 47.6468 112.778 48.3802 111.536 48.9194C110.295 49.4585 108.966 49.728 107.549 49.728L104.916 49.6904Z" fill="white"/>
<path d="M136.098 31.7678C136.098 31.0657 135.96 30.3887 135.684 29.7367C135.421 29.0722 135.057 28.4892 134.593 27.9877C134.129 27.4737 133.584 27.0662 132.957 26.7653C132.343 26.4518 131.684 26.2951 130.982 26.2951C130.28 26.2951 129.616 26.4142 128.989 26.6525C128.374 26.8907 127.835 27.2417 127.371 27.7056C126.92 28.1695 126.563 28.7462 126.299 29.4358C126.036 30.1129 125.905 30.8902 125.905 31.7678C125.905 32.6078 126.036 33.3664 126.299 34.0434C126.563 34.7079 126.92 35.2784 127.371 35.7548C127.835 36.2312 128.374 36.6011 128.989 36.8644C129.616 37.1151 130.28 37.2405 130.982 37.2405C131.684 37.2405 132.343 37.0901 132.957 36.7892C133.584 36.4757 134.129 36.0682 134.593 35.5667C135.057 35.0527 135.421 34.4697 135.684 33.8177C135.96 33.1532 136.098 32.4699 136.098 31.7678ZM141.269 39.4785C141.269 40.8953 141 42.2242 140.461 43.4655C139.922 44.7067 139.182 45.7912 138.242 46.719C137.314 47.6468 136.223 48.3802 134.969 48.9194C133.728 49.4585 132.399 49.728 130.982 49.728L128.406 49.6904V44.5563L130.945 44.5939C131.747 44.5939 132.43 44.4873 132.995 44.2742C133.559 44.0736 134.035 43.7915 134.424 43.4279C134.813 43.0768 135.12 42.6693 135.345 42.2054C135.584 41.7415 135.772 41.2526 135.91 40.7385C135.709 41.0645 135.421 41.3341 135.045 41.5472C134.668 41.7478 134.248 41.9108 133.784 42.0362C133.333 42.1741 132.857 42.2681 132.355 42.3183C131.866 42.3684 131.409 42.3935 130.982 42.3935C129.566 42.3935 128.23 42.149 126.977 41.6601C125.735 41.1711 124.644 40.4752 123.704 39.5725C122.776 38.6573 122.043 37.5414 121.504 36.225C120.965 34.9085 120.695 33.4228 120.695 31.7678C120.695 30.2508 120.965 28.8403 121.504 27.5364C122.043 26.2324 122.776 25.104 123.704 24.1512C124.644 23.1983 125.735 22.4523 126.977 21.9132C128.23 21.3741 129.566 21.1045 130.982 21.1045C131.634 21.1045 132.28 21.186 132.919 21.349C133.559 21.512 134.179 21.7377 134.781 22.026C135.383 22.3144 135.953 22.6529 136.493 23.0416C137.044 23.4303 137.558 23.8503 138.035 24.3016L140.028 21.9132H141.269V39.4785Z" fill="white"/>
<path d="M150.334 42.0174H145.2V21.8756H146.441L148.134 24.264C148.961 23.5118 149.902 22.935 150.955 22.5338C152.008 22.1201 153.099 21.9132 154.227 21.9132H158.76V27.0286H154.227C153.688 27.0286 153.18 27.1289 152.704 27.3295C152.227 27.5301 151.814 27.8059 151.463 28.157C151.112 28.508 150.836 28.9218 150.635 29.3982C150.435 29.8746 150.334 30.3824 150.334 30.9215V42.0174Z" fill="white"/>
<path d="M168.783 37.0901C168.984 37.1528 169.185 37.1966 169.385 37.2217C169.586 37.2343 169.786 37.2405 169.987 37.2405C170.489 37.2405 170.971 37.1716 171.435 37.0336C171.899 36.8957 172.332 36.7014 172.733 36.4506C173.147 36.1874 173.51 35.8739 173.824 35.5103C174.15 35.1342 174.413 34.7204 174.613 34.2691L178.375 38.0492C177.898 38.7262 177.347 39.3343 176.72 39.8734C176.105 40.4126 175.435 40.8702 174.707 41.2463C173.993 41.6224 173.234 41.9045 172.432 42.0926C171.642 42.2932 170.827 42.3935 169.987 42.3935C168.57 42.3935 167.235 42.1302 165.981 41.6036C164.74 41.0771 163.649 40.3436 162.709 39.4033C161.781 38.4629 161.048 37.3471 160.509 36.0557C159.969 34.7518 159.7 33.3225 159.7 31.7678C159.7 30.1755 159.969 28.7212 160.509 27.4047C161.048 26.0883 161.781 24.9661 162.709 24.0383C163.649 23.1106 164.74 22.3896 165.981 21.8756C167.235 21.3615 168.57 21.1045 169.987 21.1045C170.827 21.1045 171.648 21.2048 172.451 21.4054C173.253 21.606 174.012 21.8944 174.726 22.2705C175.453 22.6467 176.13 23.1106 176.757 23.6622C177.384 24.2013 177.936 24.8094 178.412 25.4864L168.783 37.0901ZM171.416 26.502C171.178 26.4142 170.94 26.3578 170.702 26.3327C170.476 26.3077 170.238 26.2951 169.987 26.2951C169.285 26.2951 168.62 26.4268 167.994 26.6901C167.379 26.9408 166.84 27.3044 166.376 27.7808C165.925 28.2573 165.567 28.834 165.304 29.511C165.041 30.1755 164.909 30.9278 164.909 31.7678C164.909 31.9559 164.916 32.169 164.928 32.4072C164.953 32.6455 164.984 32.8899 165.022 33.1407C165.072 33.3789 165.129 33.6109 165.191 33.8365C165.254 34.0622 165.336 34.2628 165.436 34.4383L171.416 26.502Z" fill="white"/>
<path d="M186.142 42.0174H181.008V21.8756H182.249L183.941 23.8315C184.769 23.0792 185.703 22.5025 186.744 22.1013C187.797 21.6875 188.894 21.4807 190.035 21.4807C191.263 21.4807 192.423 21.7189 193.514 22.1953C194.605 22.6592 195.558 23.3049 196.373 24.1324C197.188 24.9473 197.827 25.9065 198.291 27.0098C198.767 28.1006 199.005 29.2666 199.005 30.5078V42.0174H193.871V30.5078C193.871 29.9812 193.771 29.486 193.57 29.0221C193.37 28.5456 193.094 28.1319 192.743 27.7808C192.392 27.4298 191.984 27.154 191.52 26.9534C191.057 26.7528 190.561 26.6525 190.035 26.6525C189.496 26.6525 188.988 26.7528 188.511 26.9534C188.035 27.154 187.621 27.4298 187.27 27.7808C186.919 28.1319 186.643 28.5456 186.443 29.0221C186.242 29.486 186.142 29.9812 186.142 30.5078V42.0174Z" fill="white"/>
<path d="M213.731 42.0174H201.996V36.902H213.731C214.082 36.902 214.383 36.7766 214.634 36.5259C214.884 36.2751 215.01 35.9742 215.01 35.6232C215.01 35.2596 214.884 35.0214 214.634 34.9085C214.383 34.7957 214.082 34.7393 213.731 34.7393H208.39C207.5 34.7393 206.666 34.57 205.889 34.2315C205.111 33.893 204.434 33.4353 203.858 32.8586C203.281 32.2693 202.823 31.586 202.485 30.8087C202.159 30.0314 201.996 29.1976 201.996 28.3074C201.996 27.4172 202.159 26.5835 202.485 25.8062C202.823 25.0288 203.281 24.3518 203.858 23.7751C204.434 23.1983 205.111 22.747 205.889 22.421C206.666 22.0825 207.5 21.9132 208.39 21.9132H218.79V27.0286H208.39C208.039 27.0286 207.738 27.154 207.487 27.4047C207.236 27.6555 207.111 27.9564 207.111 28.3074C207.111 28.671 207.236 28.9845 207.487 29.2478C207.738 29.4985 208.039 29.6239 208.39 29.6239H213.731C214.609 29.6239 215.436 29.7743 216.213 30.0752C216.991 30.3636 217.668 30.7711 218.245 31.2977C218.821 31.8242 219.279 32.4574 219.617 33.1971C219.956 33.9368 220.125 34.7455 220.125 35.6232C220.125 36.5133 219.956 37.3471 219.617 38.1244C219.279 38.8892 218.821 39.5663 218.245 40.1555C217.668 40.7323 216.991 41.1899 216.213 41.5284C215.436 41.8544 214.609 42.0174 213.731 42.0174Z" fill="white"/>
<path fill-rule="evenodd" clip-rule="evenodd" d="M28.0115 0.703654C26.3864 -0.234551 24.3843 -0.234551 22.7593 0.703654L2.62607 12.3276C1.00105 13.2658 0 14.9997 0 16.8761V40.1239C0 42.0003 1.00105 43.7342 2.62607 44.6724L22.7593 56.2963C24.3843 57.2346 26.3864 57.2346 28.0115 56.2963L48.1447 44.6724C49.7697 43.7342 50.7708 42.0003 50.7708 40.1239V16.8761C50.7708 14.9997 49.7697 13.2658 48.1447 12.3276L28.0115 0.703654ZM28.0114 7.3656C26.3864 6.42739 24.3843 6.42739 22.7593 7.3656L8.39545 15.6586C6.77043 16.5968 5.76937 18.3306 5.76937 20.207V36.793C5.76937 38.6694 6.77043 40.4033 8.39545 41.3415L22.7593 49.6344C24.3843 50.5726 26.3864 50.5726 28.0114 49.6344L42.3752 41.3415C44.0003 40.4033 45.0013 38.6694 45.0013 36.793V20.207C45.0013 18.3306 44.0003 16.5968 42.3752 15.6586L28.0114 7.3656Z" fill="#C4C4C4"/>
<path d="M23.6347 13.5228C24.718 12.8973 26.0528 12.8973 27.1361 13.5228L37.4812 19.4956C38.5646 20.1211 39.232 21.277 39.232 22.5279V34.4734C39.232 35.7244 38.5646 36.8803 37.4812 37.5058L27.1361 43.4785C26.0528 44.104 24.718 44.104 23.6347 43.4785L13.2895 37.5058C12.2062 36.8803 11.5388 35.7244 11.5388 34.4734V22.5279C11.5388 21.277 12.2062 20.1211 13.2895 19.4956L23.6347 13.5228Z" fill="#F05D5D"/>
</svg>
