<svg width="126" height="33" viewBox="0 0 126 33" fill="none" xmlns="http://www.w3.org/2000/svg">
<path fill-rule="evenodd" clip-rule="evenodd" d="M16 0.401924C15.0718 -0.133975 13.9282 -0.133975 13 0.401924L1.5 7.04145C0.571797 7.57735 0 8.56773 0 9.63953V22.9186C0 23.9904 0.571797 24.9808 1.5 25.5167L13 32.1562C13.9282 32.6921 15.0718 32.6921 16 32.1562L27.5 25.5167C28.4282 24.9808 29 23.9904 29 22.9186V9.63953C29 8.56773 28.4282 7.57735 27.5 7.04145L16 0.401924ZM16 4.20719C15.0718 3.67129 13.9282 3.67129 13 4.20719L4.79544 8.94409C3.86723 9.47999 3.29544 10.4704 3.29544 11.5422V21.016C3.29544 22.0877 3.86723 23.0781 4.79544 23.614L13 28.3509C13.9282 28.8868 15.0718 28.8868 16 28.3509L24.2045 23.614C25.1327 23.0781 25.7045 22.0877 25.7045 21.016V11.5422C25.7045 10.4704 25.1327 9.47999 24.2045 8.94409L16 4.20719Z" fill="#C4C4C4"/>
<path d="M13.5001 7.72383C14.1189 7.36657 14.8813 7.36657 15.5001 7.72383L21.4092 11.1354C22.028 11.4927 22.4092 12.153 22.4092 12.8675V19.6907C22.4092 20.4053 22.028 21.0655 21.4092 21.4228L15.5001 24.8344C14.8813 25.1917 14.1189 25.1917 13.5001 24.8344L7.59097 21.4228C6.97217 21.0655 6.59097 20.4053 6.59097 19.6907V12.8675C6.59097 12.153 6.97217 11.4927 7.59097 11.1354L13.5001 7.72383Z" fill="#F05D5D"/>
<path d="M54.75 24H51.4521L45.5117 13.8594V24H42.4287V8.5957H45.7266L51.667 18.7471V8.5957H54.75V24Z" fill="#303030"/>
<path d="M59.9277 28.3828V25.4287L61.5605 25.4502C61.847 25.4502 62.1227 25.4036 62.3877 25.3105C62.6527 25.2174 62.8962 25.0885 63.1182 24.9238C63.3473 24.7591 63.5479 24.5622 63.7197 24.333C63.8916 24.111 64.0312 23.8675 64.1387 23.6025C63.8164 23.7386 63.487 23.8747 63.1504 24.0107C62.821 24.1468 62.488 24.2148 62.1514 24.2148C61.4424 24.2148 60.7764 24.0895 60.1533 23.8389C59.5303 23.5882 58.9824 23.2337 58.5098 22.7754C58.0443 22.3099 57.6755 21.7477 57.4033 21.0889C57.1383 20.4229 57.0059 19.6781 57.0059 18.8545V12.4951H59.9277V18.8545C59.9277 19.2627 59.985 19.6208 60.0996 19.9287C60.2214 20.2295 60.3825 20.4837 60.583 20.6914C60.7835 20.8919 61.0163 21.0423 61.2812 21.1426C61.5534 21.2428 61.8434 21.293 62.1514 21.293C62.4521 21.293 62.735 21.2249 63 21.0889C63.2721 20.9456 63.5085 20.7594 63.709 20.5303C63.9095 20.3011 64.0671 20.0433 64.1816 19.7568C64.2962 19.4632 64.3535 19.1624 64.3535 18.8545V12.4951H67.3076V22.5498C67.3005 23.359 67.1429 24.1182 66.835 24.8271C66.527 25.5361 66.1045 26.1556 65.5674 26.6855C65.0374 27.2155 64.418 27.6344 63.709 27.9424C63 28.2503 62.2409 28.4043 61.4316 28.4043L59.9277 28.3828Z" fill="#303030"/>
<path d="M77.7383 18.1455C77.7383 17.7445 77.6595 17.3577 77.502 16.9854C77.3516 16.6058 77.1439 16.2728 76.8789 15.9863C76.6139 15.6927 76.3024 15.46 75.9443 15.2881C75.5934 15.109 75.2174 15.0195 74.8164 15.0195C74.4154 15.0195 74.0358 15.0876 73.6777 15.2236C73.3268 15.3597 73.0189 15.5602 72.7539 15.8252C72.4961 16.0902 72.292 16.4196 72.1416 16.8135C71.9912 17.2002 71.916 17.6442 71.916 18.1455C71.916 18.6253 71.9912 19.0586 72.1416 19.4453C72.292 19.8249 72.4961 20.1507 72.7539 20.4229C73.0189 20.695 73.3268 20.9062 73.6777 21.0566C74.0358 21.1999 74.4154 21.2715 74.8164 21.2715C75.2174 21.2715 75.5934 21.1855 75.9443 21.0137C76.3024 20.8346 76.6139 20.6019 76.8789 20.3154C77.1439 20.0218 77.3516 19.6888 77.502 19.3164C77.6595 18.9368 77.7383 18.5465 77.7383 18.1455ZM80.6924 22.5498C80.6924 23.359 80.5384 24.1182 80.2305 24.8271C79.9225 25.5361 79.5 26.1556 78.9629 26.6855C78.4329 27.2155 77.8099 27.6344 77.0938 27.9424C76.3848 28.2503 75.6257 28.4043 74.8164 28.4043L73.3447 28.3828V25.4502L74.7949 25.4717C75.2533 25.4717 75.6436 25.4108 75.9658 25.2891C76.2881 25.1745 76.5602 25.0133 76.7822 24.8057C77.0042 24.6051 77.1797 24.3724 77.3086 24.1074C77.4447 23.8424 77.5521 23.5632 77.6309 23.2695C77.5163 23.4557 77.3516 23.6097 77.1367 23.7314C76.9219 23.846 76.682 23.9391 76.417 24.0107C76.1592 24.0895 75.887 24.1432 75.6006 24.1719C75.3213 24.2005 75.0599 24.2148 74.8164 24.2148C74.0072 24.2148 73.2445 24.0752 72.5283 23.7959C71.8193 23.5166 71.1963 23.1191 70.6592 22.6035C70.1292 22.0807 69.7103 21.4434 69.4023 20.6914C69.0944 19.9395 68.9404 19.0908 68.9404 18.1455C68.9404 17.279 69.0944 16.4733 69.4023 15.7285C69.7103 14.9837 70.1292 14.3392 70.6592 13.7949C71.1963 13.2507 71.8193 12.8245 72.5283 12.5166C73.2445 12.2087 74.0072 12.0547 74.8164 12.0547C75.1888 12.0547 75.5576 12.1012 75.9229 12.1943C76.2881 12.2874 76.6426 12.4163 76.9863 12.5811C77.3301 12.7458 77.6559 12.9391 77.9639 13.1611C78.279 13.3831 78.5726 13.623 78.8447 13.8809L79.9834 12.5166H80.6924V22.5498Z" fill="#303030"/>
<path d="M85.8701 24H82.9375V12.4951H83.6465L84.6133 13.8594C85.0859 13.4297 85.623 13.1003 86.2246 12.8711C86.8262 12.6348 87.4492 12.5166 88.0938 12.5166H90.6826V15.4385H88.0938C87.7858 15.4385 87.4958 15.4958 87.2236 15.6104C86.9515 15.7249 86.7152 15.8825 86.5146 16.083C86.3141 16.2835 86.1566 16.5199 86.042 16.792C85.9274 17.0641 85.8701 17.3542 85.8701 17.6621V24Z" fill="#303030"/>
<path d="M96.4082 21.1855C96.5228 21.2214 96.6374 21.2464 96.752 21.2607C96.8665 21.2679 96.9811 21.2715 97.0957 21.2715C97.3822 21.2715 97.6579 21.2321 97.9229 21.1533C98.1878 21.0745 98.4349 20.9635 98.6641 20.8203C98.9004 20.6699 99.1081 20.4909 99.2871 20.2832C99.4733 20.0684 99.6237 19.832 99.7383 19.5742L101.887 21.7334C101.615 22.1201 101.299 22.4674 100.941 22.7754C100.59 23.0833 100.207 23.3447 99.792 23.5596C99.3838 23.7744 98.9505 23.9355 98.4922 24.043C98.041 24.1576 97.5755 24.2148 97.0957 24.2148C96.2865 24.2148 95.5238 24.0645 94.8076 23.7637C94.0986 23.4629 93.4756 23.0439 92.9385 22.5068C92.4085 21.9697 91.9896 21.3324 91.6816 20.5947C91.3737 19.8499 91.2197 19.0335 91.2197 18.1455C91.2197 17.236 91.3737 16.4053 91.6816 15.6533C91.9896 14.9014 92.4085 14.2604 92.9385 13.7305C93.4756 13.2005 94.0986 12.7887 94.8076 12.4951C95.5238 12.2015 96.2865 12.0547 97.0957 12.0547C97.5755 12.0547 98.0446 12.112 98.5029 12.2266C98.9613 12.3411 99.3945 12.5059 99.8027 12.7207C100.218 12.9355 100.605 13.2005 100.963 13.5156C101.321 13.8236 101.636 14.1709 101.908 14.5576L96.4082 21.1855ZM97.9121 15.1377C97.776 15.0876 97.64 15.0553 97.5039 15.041C97.375 15.0267 97.2389 15.0195 97.0957 15.0195C96.6947 15.0195 96.3151 15.0947 95.957 15.2451C95.6061 15.3883 95.2982 15.596 95.0332 15.8682C94.7754 16.1403 94.5713 16.4697 94.4209 16.8564C94.2705 17.236 94.1953 17.6657 94.1953 18.1455C94.1953 18.2529 94.1989 18.3747 94.2061 18.5107C94.2204 18.6468 94.2383 18.7865 94.2598 18.9297C94.2884 19.0658 94.3206 19.1982 94.3564 19.3271C94.3923 19.4561 94.4388 19.5706 94.4961 19.6709L97.9121 15.1377Z" fill="#303030"/>
<path d="M106.323 24H103.391V12.4951H104.1L105.066 13.6123C105.539 13.1826 106.073 12.8532 106.667 12.624C107.269 12.3877 107.895 12.2695 108.547 12.2695C109.249 12.2695 109.911 12.4056 110.534 12.6777C111.157 12.9427 111.701 13.3115 112.167 13.7842C112.632 14.2497 112.998 14.7975 113.263 15.4277C113.535 16.0508 113.671 16.7168 113.671 17.4258V24H110.738V17.4258C110.738 17.125 110.681 16.8421 110.566 16.5771C110.452 16.305 110.294 16.0687 110.094 15.8682C109.893 15.6676 109.66 15.5101 109.396 15.3955C109.131 15.2809 108.848 15.2236 108.547 15.2236C108.239 15.2236 107.949 15.2809 107.677 15.3955C107.405 15.5101 107.168 15.6676 106.968 15.8682C106.767 16.0687 106.61 16.305 106.495 16.5771C106.381 16.8421 106.323 17.125 106.323 17.4258V24Z" fill="#303030"/>
<path d="M122.082 24H115.379V21.0781H122.082C122.283 21.0781 122.454 21.0065 122.598 20.8633C122.741 20.7201 122.812 20.5482 122.812 20.3477C122.812 20.14 122.741 20.0039 122.598 19.9395C122.454 19.875 122.283 19.8428 122.082 19.8428H119.031C118.523 19.8428 118.047 19.7461 117.603 19.5527C117.159 19.3594 116.772 19.098 116.442 18.7686C116.113 18.432 115.852 18.0417 115.658 17.5977C115.472 17.1536 115.379 16.6774 115.379 16.1689C115.379 15.6605 115.472 15.1842 115.658 14.7402C115.852 14.2962 116.113 13.9095 116.442 13.5801C116.772 13.2507 117.159 12.9928 117.603 12.8066C118.047 12.6133 118.523 12.5166 119.031 12.5166H124.972V15.4385H119.031C118.831 15.4385 118.659 15.5101 118.516 15.6533C118.372 15.7965 118.301 15.9684 118.301 16.1689C118.301 16.3766 118.372 16.5557 118.516 16.7061C118.659 16.8493 118.831 16.9209 119.031 16.9209H122.082C122.583 16.9209 123.056 17.0068 123.5 17.1787C123.944 17.3434 124.331 17.5762 124.66 17.877C124.99 18.1777 125.251 18.5394 125.444 18.9619C125.638 19.3844 125.734 19.8464 125.734 20.3477C125.734 20.8561 125.638 21.3324 125.444 21.7764C125.251 22.2132 124.99 22.5999 124.66 22.9365C124.331 23.266 123.944 23.5273 123.5 23.7207C123.056 23.9069 122.583 24 122.082 24Z" fill="#303030"/>
</svg>
