<svg width="548" height="494" viewBox="0 0 548 494" fill="none" xmlns="http://www.w3.org/2000/svg">
<path d="M35.4709 1.77155C37.3421 0.677225 39.6579 0.677225 41.5291 1.77155L68.8711 17.7625C70.7111 18.8386 71.842 20.8101 71.842 22.9417V55.0583C71.842 57.1899 70.7111 59.1614 68.8711 60.2375L41.5291 76.2284C39.6579 77.3228 37.3421 77.3228 35.4709 76.2284L8.12894 60.2375C6.28894 59.1614 5.15802 57.1899 5.15802 55.0583L5.15802 22.9417C5.15802 20.8101 6.28894 18.8386 8.12895 17.7625L35.4709 1.77155Z" fill="white"/>
<path d="M38.5638 43.0185C40.0535 41.7455 41.1218 40.038 41.6239 38.1274C42.126 36.2168 42.0375 34.1957 41.3705 32.3379C40.7036 30.4801 39.4903 28.8755 37.8953 27.7418C36.3003 26.6081 34.4007 26 32.4539 26C30.5072 26 28.6076 26.6081 27.0126 27.7418C25.4176 28.8755 24.2043 30.4801 23.5374 32.3379C22.8704 34.1957 22.7819 36.2168 23.284 38.1274C23.7861 40.038 24.8544 41.7455 26.3441 43.0185C23.9281 44.1291 21.8491 45.8769 20.3232 48.08C20.0524 48.4718 19.9456 48.9566 20.0262 49.4282C20.1069 49.8998 20.3683 50.3197 20.7533 50.5957C21.0518 50.8124 21.4097 50.9283 21.7766 50.9271C22.0619 50.928 22.3432 50.8585 22.5963 50.7247C22.8494 50.5909 23.0668 50.3967 23.2299 50.1589C24.2696 48.6546 25.6506 47.4267 27.2561 46.579C28.8617 45.7314 30.6445 45.2888 32.4539 45.2888C34.2634 45.2888 36.0462 45.7314 37.6518 46.579C39.2573 47.4267 40.6383 48.6546 41.678 50.1589C41.8069 50.3658 41.9759 50.544 42.1746 50.6826C42.3734 50.8212 42.5978 50.9173 42.8342 50.9652C43.0707 51.013 43.3142 51.0116 43.5501 50.9609C43.7859 50.9102 44.0092 50.8114 44.2063 50.6704C44.4035 50.5294 44.5703 50.3492 44.6968 50.1407C44.8233 49.9322 44.9068 49.6998 44.9421 49.4576C44.9775 49.2154 44.9641 48.9683 44.9026 48.7315C44.8412 48.4947 44.733 48.2731 44.5847 48.08C43.0588 45.8769 40.9798 44.1291 38.5638 43.0185ZM26.5221 35.6523C26.5221 34.4605 26.87 33.2955 27.5218 32.3046C28.1736 31.3137 29.1 30.5414 30.1839 30.0853C31.2678 29.6293 32.4605 29.5099 33.6112 29.7424C34.7619 29.9749 35.8188 30.5488 36.6484 31.3915C37.478 32.2342 38.043 33.3079 38.2719 34.4767C38.5007 35.6456 38.3833 36.8571 37.9343 37.9582C37.4853 39.0592 36.725 40.0003 35.7495 40.6624C34.774 41.3245 33.6272 41.6778 32.4539 41.6778C30.8807 41.6778 29.3719 41.043 28.2595 39.913C27.147 38.783 26.5221 37.2503 26.5221 35.6523ZM56.2408 50.5957C55.9423 50.8124 55.5844 50.9283 55.2176 50.9271C54.9327 50.9255 54.6523 50.8549 54.3995 50.7213C54.1468 50.5877 53.9291 50.3949 53.7642 50.1589C52.7223 48.6572 51.3407 47.4315 49.7356 46.5849C48.1305 45.7382 46.3488 45.2952 44.5402 45.2932C44.0682 45.2932 43.6156 45.1028 43.2818 44.7637C42.9481 44.4247 42.7606 43.965 42.7606 43.4855C42.7606 43.0061 42.9481 42.5463 43.2818 42.2073C43.6156 41.8683 44.0682 41.6778 44.5402 41.6778C46.1134 41.6778 47.6222 41.043 48.7346 39.913C49.8471 38.783 50.472 37.2503 50.472 35.6523C50.472 34.0542 49.8471 32.5215 48.7346 31.3915C47.6222 30.2615 46.1134 29.6267 44.5402 29.6267C43.9985 29.6256 43.4594 29.7017 42.9386 29.8526C42.7124 29.9212 42.475 29.9433 42.2403 29.9178C42.0057 29.8922 41.7783 29.8195 41.5715 29.7039C41.3648 29.5882 41.1827 29.432 41.036 29.2442C40.8893 29.0564 40.7808 28.8408 40.7168 28.61C40.6529 28.3792 40.6348 28.1378 40.6636 27.8998C40.6924 27.6619 40.7675 27.4321 40.8846 27.2239C41.0016 27.0157 41.1583 26.8332 41.3454 26.6871C41.5326 26.541 41.7464 26.4342 41.9746 26.3728C42.809 26.1315 43.6726 26.0098 44.5402 26.0113C46.4882 26.0056 48.3906 26.6098 49.9884 27.7418C51.5863 28.8737 52.8018 30.4784 53.4696 32.3373C54.1375 34.1962 54.2251 36.219 53.7205 38.1303C53.216 40.0415 52.1438 41.7484 50.65 43.0185C53.066 44.1291 55.145 45.8769 56.6709 48.08C56.8069 48.2733 56.9037 48.4921 56.9558 48.7237C57.0078 48.9554 57.014 49.1952 56.974 49.4293C56.934 49.6634 56.8485 49.887 56.7227 50.0873C56.5968 50.2875 56.433 50.4603 56.2408 50.5957V50.5957Z" fill="#F05D5D"/>
<path d="M102.728 48V31.128H105.032L111.872 42.072H110.552L117.368 31.128H119.672V48H116.432V36.72L117.056 36.912L112.304 44.544H110.096L105.344 36.912L105.992 36.72V48H102.728ZM128.231 48.24C127.063 48.24 126.007 47.976 125.063 47.448C124.135 46.904 123.391 46.176 122.831 45.264C122.287 44.336 122.015 43.304 122.015 42.168C122.015 41.032 122.287 40.016 122.831 39.12C123.375 38.208 124.119 37.488 125.063 36.96C126.007 36.416 127.055 36.144 128.207 36.144C129.391 36.144 130.447 36.416 131.375 36.96C132.319 37.488 133.063 38.208 133.607 39.12C134.151 40.016 134.423 41.032 134.423 42.168C134.423 43.304 134.151 44.336 133.607 45.264C133.063 46.176 132.319 46.904 131.375 47.448C130.447 47.976 129.399 48.24 128.231 48.24ZM128.207 45.312C128.799 45.312 129.319 45.184 129.767 44.928C130.231 44.656 130.583 44.288 130.823 43.824C131.079 43.344 131.207 42.8 131.207 42.192C131.207 41.584 131.079 41.048 130.823 40.584C130.567 40.12 130.215 39.76 129.767 39.504C129.319 39.232 128.799 39.096 128.207 39.096C127.631 39.096 127.119 39.232 126.671 39.504C126.223 39.76 125.871 40.12 125.615 40.584C125.359 41.048 125.231 41.584 125.231 42.192C125.231 42.8 125.359 43.344 125.615 43.824C125.871 44.288 126.223 44.656 126.671 44.928C127.119 45.184 127.631 45.312 128.207 45.312ZM125.639 34.728C125.143 34.728 124.727 34.56 124.391 34.224C124.055 33.872 123.887 33.44 123.887 32.928C123.887 32.416 124.055 31.992 124.391 31.656C124.727 31.304 125.143 31.128 125.639 31.128C126.167 31.128 126.591 31.304 126.911 31.656C127.247 31.992 127.415 32.416 127.415 32.928C127.415 33.44 127.247 33.872 126.911 34.224C126.591 34.56 126.167 34.728 125.639 34.728ZM130.799 34.728C130.303 34.728 129.887 34.56 129.551 34.224C129.215 33.872 129.047 33.44 129.047 32.928C129.047 32.416 129.215 31.992 129.551 31.656C129.887 31.304 130.303 31.128 130.799 31.128C131.327 31.128 131.751 31.304 132.071 31.656C132.407 31.992 132.575 32.416 132.575 32.928C132.575 33.44 132.407 33.872 132.071 34.224C131.751 34.56 131.327 34.728 130.799 34.728ZM137.869 48V31.584H141.013V48H137.869ZM135.157 39.168V36.408H143.725V39.168H135.157ZM150.756 48.24C149.54 48.24 148.46 47.984 147.516 47.472C146.572 46.944 145.82 46.224 145.26 45.312C144.716 44.4 144.444 43.36 144.444 42.192C144.444 41.04 144.708 40.016 145.236 39.12C145.78 38.208 146.516 37.488 147.444 36.96C148.372 36.416 149.404 36.144 150.54 36.144C151.66 36.144 152.644 36.4 153.492 36.912C154.356 37.408 155.028 38.096 155.508 38.976C156.004 39.84 156.252 40.824 156.252 41.928C156.252 42.136 156.236 42.352 156.204 42.576C156.188 42.784 156.148 43.024 156.084 43.296L146.34 43.32V40.968L154.62 40.944L153.348 41.928C153.316 41.24 153.188 40.664 152.964 40.2C152.756 39.736 152.444 39.384 152.028 39.144C151.628 38.888 151.132 38.76 150.54 38.76C149.916 38.76 149.372 38.904 148.908 39.192C148.444 39.464 148.084 39.856 147.828 40.368C147.588 40.864 147.468 41.456 147.468 42.144C147.468 42.848 147.596 43.464 147.852 43.992C148.124 44.504 148.508 44.904 149.004 45.192C149.5 45.464 150.076 45.6 150.732 45.6C151.324 45.6 151.86 45.504 152.34 45.312C152.82 45.104 153.236 44.8 153.588 44.4L155.436 46.248C154.876 46.904 154.188 47.4 153.372 47.736C152.572 48.072 151.7 48.24 150.756 48.24Z" fill="#303030"/>
<path d="M478.473 116.346C480.962 114.896 484.038 114.896 486.527 116.346L526.591 139.685C529.051 141.119 530.564 143.751 530.564 146.598V193.402C530.564 196.249 529.051 198.881 526.591 200.315L486.527 223.654C484.038 225.104 480.962 225.104 478.473 223.654L438.409 200.315C435.949 198.881 434.436 196.249 434.436 193.402V146.598C434.436 143.751 435.949 141.119 438.409 139.685L478.473 116.346Z" fill="white"/>
<path d="M503.779 160.543L489.456 146.221C489.071 145.834 488.613 145.527 488.108 145.317C487.604 145.108 487.063 145 486.517 145C485.97 145 485.43 145.108 484.925 145.317C484.421 145.527 483.963 145.834 483.577 146.221L478.469 151.329L466.523 155.79C465.839 156.051 465.235 156.487 464.771 157.054C464.306 157.621 463.998 158.299 463.876 159.021L459.039 188.081C458.975 188.44 458.99 188.808 459.084 189.16C459.179 189.512 459.349 189.839 459.584 190.118C459.819 190.397 460.112 190.62 460.443 190.773C460.774 190.925 461.135 191.003 461.499 191L461.916 190.958L490.978 186.122C491.701 186 492.379 185.691 492.945 185.227C493.512 184.763 493.948 184.158 494.21 183.474L498.671 171.55L503.779 166.422C504.166 166.036 504.473 165.578 504.683 165.074C504.892 164.569 505 164.028 505 163.482C505 162.936 504.892 162.395 504.683 161.891C504.473 161.386 504.166 160.928 503.779 160.543V160.543ZM489.686 181.264L468.796 184.746L475.78 177.762C477.378 178.524 479.193 178.697 480.906 178.25C482.619 177.803 484.118 176.765 485.14 175.319C486.161 173.874 486.639 172.114 486.488 170.35C486.338 168.587 485.569 166.933 484.317 165.681C483.066 164.43 481.412 163.661 479.648 163.51C477.885 163.36 476.125 163.838 474.679 164.859C473.233 165.881 472.195 167.38 471.748 169.093C471.301 170.805 471.474 172.621 472.236 174.218L465.252 181.202L468.733 160.313L479.22 156.394L493.626 170.779L489.686 181.264ZM476.51 170.987C476.51 170.492 476.656 170.009 476.931 169.597C477.206 169.186 477.597 168.865 478.054 168.676C478.511 168.486 479.014 168.437 479.499 168.533C479.985 168.63 480.431 168.868 480.78 169.218C481.13 169.568 481.369 170.014 481.465 170.499C481.562 170.984 481.512 171.487 481.323 171.944C481.133 172.401 480.813 172.792 480.401 173.067C479.99 173.342 479.506 173.489 479.011 173.489C478.348 173.489 477.712 173.225 477.242 172.756C476.773 172.287 476.51 171.65 476.51 170.987ZM496.524 166.609L483.389 153.476L486.517 150.349L499.651 163.482L496.524 166.609Z" fill="#F05D5D"/>
<path d="M330.96 177V174.096H335.256C336.344 174.096 337.296 173.872 338.112 173.424C338.928 172.96 339.56 172.312 340.008 171.48C340.472 170.648 340.704 169.664 340.704 168.528C340.704 167.424 340.472 166.464 340.008 165.648C339.544 164.816 338.904 164.176 338.088 163.728C337.272 163.264 336.328 163.032 335.256 163.032H330.888V160.128H335.304C336.552 160.128 337.704 160.336 338.76 160.752C339.832 161.168 340.76 161.76 341.544 162.528C342.344 163.28 342.96 164.168 343.392 165.192C343.84 166.216 344.064 167.336 344.064 168.552C344.064 169.768 343.84 170.896 343.392 171.936C342.96 172.96 342.352 173.856 341.568 174.624C340.784 175.376 339.856 175.96 338.784 176.376C337.728 176.792 336.584 177 335.352 177H330.96ZM328.728 177V160.128H331.992V177H328.728ZM351.866 177.24C350.65 177.24 349.57 176.984 348.626 176.472C347.682 175.944 346.93 175.224 346.37 174.312C345.826 173.4 345.554 172.36 345.554 171.192C345.554 170.04 345.818 169.016 346.346 168.12C346.89 167.208 347.626 166.488 348.554 165.96C349.482 165.416 350.514 165.144 351.65 165.144C352.77 165.144 353.754 165.4 354.602 165.912C355.466 166.408 356.138 167.096 356.618 167.976C357.114 168.84 357.362 169.824 357.362 170.928C357.362 171.136 357.346 171.352 357.314 171.576C357.298 171.784 357.258 172.024 357.194 172.296L347.45 172.32V169.968L355.73 169.944L354.458 170.928C354.426 170.24 354.298 169.664 354.074 169.2C353.866 168.736 353.554 168.384 353.138 168.144C352.738 167.888 352.242 167.76 351.65 167.76C351.026 167.76 350.482 167.904 350.018 168.192C349.554 168.464 349.194 168.856 348.938 169.368C348.698 169.864 348.578 170.456 348.578 171.144C348.578 171.848 348.706 172.464 348.962 172.992C349.234 173.504 349.618 173.904 350.114 174.192C350.61 174.464 351.186 174.6 351.842 174.6C352.434 174.6 352.97 174.504 353.45 174.312C353.93 174.104 354.346 173.8 354.698 173.4L356.546 175.248C355.986 175.904 355.298 176.4 354.482 176.736C353.682 177.072 352.81 177.24 351.866 177.24ZM363.29 177.264C362.634 177.264 361.986 177.176 361.346 177C360.722 176.824 360.146 176.584 359.618 176.28C359.09 175.96 358.634 175.576 358.25 175.128L360.122 173.232C360.522 173.68 360.986 174.016 361.514 174.24C362.042 174.464 362.626 174.576 363.266 174.576C363.778 174.576 364.162 174.504 364.418 174.36C364.69 174.216 364.826 174 364.826 173.712C364.826 173.392 364.682 173.144 364.394 172.968C364.122 172.792 363.762 172.648 363.314 172.536C362.866 172.408 362.394 172.272 361.898 172.128C361.418 171.968 360.954 171.768 360.506 171.528C360.058 171.272 359.69 170.928 359.402 170.496C359.13 170.048 358.994 169.472 358.994 168.768C358.994 168.032 359.17 167.392 359.522 166.848C359.89 166.304 360.41 165.88 361.082 165.576C361.754 165.272 362.546 165.12 363.458 165.12C364.418 165.12 365.282 165.288 366.05 165.624C366.834 165.96 367.482 166.464 367.994 167.136L366.098 169.032C365.746 168.6 365.346 168.288 364.898 168.096C364.466 167.904 363.994 167.808 363.482 167.808C363.018 167.808 362.658 167.88 362.402 168.024C362.162 168.168 362.042 168.368 362.042 168.624C362.042 168.912 362.178 169.136 362.45 169.296C362.738 169.456 363.106 169.6 363.554 169.728C364.002 169.84 364.466 169.976 364.946 170.136C365.442 170.28 365.906 170.488 366.338 170.76C366.786 171.032 367.146 171.392 367.418 171.84C367.706 172.288 367.85 172.864 367.85 173.568C367.85 174.704 367.442 175.608 366.626 176.28C365.81 176.936 364.698 177.264 363.29 177.264ZM369.97 177V165.408H373.138V177H369.97ZM371.554 163.536C371.042 163.536 370.618 163.368 370.282 163.032C369.946 162.68 369.778 162.248 369.778 161.736C369.778 161.24 369.946 160.816 370.282 160.464C370.618 160.112 371.042 159.936 371.554 159.936C372.082 159.936 372.506 160.112 372.826 160.464C373.162 160.816 373.33 161.24 373.33 161.736C373.33 162.248 373.162 162.68 372.826 163.032C372.506 163.368 372.082 163.536 371.554 163.536ZM380.771 182.136C379.539 182.136 378.451 181.912 377.507 181.464C376.563 181.032 375.811 180.416 375.251 179.616L377.243 177.624C377.691 178.152 378.187 178.552 378.731 178.824C379.291 179.112 379.963 179.256 380.747 179.256C381.723 179.256 382.491 179.008 383.051 178.512C383.627 178.016 383.915 177.328 383.915 176.448V173.544L384.443 171L383.939 168.456V165.408H387.059V176.4C387.059 177.552 386.787 178.552 386.243 179.4C385.715 180.264 384.979 180.936 384.035 181.416C383.091 181.896 382.003 182.136 380.771 182.136ZM380.627 176.688C379.587 176.688 378.651 176.44 377.819 175.944C376.987 175.432 376.331 174.736 375.851 173.856C375.387 172.976 375.155 171.992 375.155 170.904C375.155 169.816 375.387 168.84 375.851 167.976C376.331 167.112 376.987 166.432 377.819 165.936C378.651 165.424 379.587 165.168 380.627 165.168C381.491 165.168 382.251 165.336 382.907 165.672C383.579 166.008 384.107 166.472 384.491 167.064C384.875 167.64 385.083 168.32 385.115 169.104V172.752C385.083 173.52 384.867 174.208 384.467 174.816C384.083 175.408 383.555 175.872 382.883 176.208C382.227 176.528 381.475 176.688 380.627 176.688ZM381.251 173.832C381.827 173.832 382.323 173.712 382.739 173.472C383.171 173.216 383.507 172.872 383.747 172.44C383.987 171.992 384.107 171.488 384.107 170.928C384.107 170.352 383.987 169.848 383.747 169.416C383.507 168.984 383.171 168.648 382.739 168.408C382.323 168.152 381.827 168.024 381.251 168.024C380.675 168.024 380.171 168.152 379.739 168.408C379.307 168.648 378.971 168.992 378.731 169.44C378.491 169.872 378.371 170.368 378.371 170.928C378.371 171.472 378.491 171.968 378.731 172.416C378.971 172.848 379.307 173.192 379.739 173.448C380.171 173.704 380.675 173.832 381.251 173.832ZM397.622 177V170.352C397.622 169.664 397.406 169.104 396.974 168.672C396.542 168.24 395.982 168.024 395.294 168.024C394.846 168.024 394.446 168.12 394.094 168.312C393.742 168.504 393.462 168.776 393.254 169.128C393.062 169.48 392.966 169.888 392.966 170.352L391.742 169.728C391.742 168.816 391.934 168.024 392.318 167.352C392.718 166.664 393.262 166.128 393.95 165.744C394.654 165.36 395.446 165.168 396.326 165.168C397.174 165.168 397.934 165.384 398.606 165.816C399.278 166.232 399.806 166.784 400.19 167.472C400.574 168.144 400.766 168.872 400.766 169.656V177H397.622ZM389.822 177V165.408H392.966V177H389.822Z" fill="#303030"/>
<path d="M76.4685 269.352C78.9597 267.899 82.0403 267.899 84.5315 269.352L117.668 288.685C120.125 290.118 121.636 292.749 121.636 295.595V334.405C121.636 337.251 120.125 339.882 117.668 341.315L84.5315 360.648C82.0403 362.101 78.9597 362.101 76.4685 360.648L43.3323 341.315C40.8749 339.882 39.3638 337.251 39.3638 334.405V295.595C39.3638 292.749 40.8749 290.118 43.3323 288.685L76.4685 269.352Z" fill="white"/>
<path d="M68.1947 308.532L60.4573 315L68.1947 321.468C68.4564 321.678 68.6736 321.937 68.8336 322.232C68.9936 322.527 69.0932 322.851 69.1265 323.185C69.1598 323.519 69.1261 323.856 69.0275 324.177C68.9289 324.498 68.7673 324.796 68.5523 325.053C68.3372 325.31 68.0729 325.522 67.7751 325.676C67.4772 325.829 67.1516 325.922 66.8175 325.948C66.4834 325.974 66.1475 325.933 65.8295 325.827C65.5115 325.721 65.2177 325.553 64.9656 325.332L54.9007 316.932C54.6187 316.695 54.3919 316.4 54.2363 316.066C54.0806 315.732 54 315.368 54 315C54 314.631 54.0806 314.268 54.2363 313.934C54.3919 313.6 54.6187 313.304 54.9007 313.068L64.9656 304.668C65.4791 304.256 66.1332 304.062 66.7877 304.128C67.4422 304.193 68.045 304.513 68.4672 305.018C68.8893 305.523 69.0972 306.174 69.0463 306.831C68.9954 307.487 68.6897 308.098 68.1947 308.532ZM105.099 313.068L95.0344 304.668C94.5209 304.256 93.8668 304.062 93.2123 304.128C92.5578 304.193 91.955 304.513 91.5328 305.018C91.1107 305.523 90.9028 306.174 90.9537 306.831C91.0046 307.487 91.3103 308.098 91.8053 308.532L99.5636 315L91.8053 321.468C91.5496 321.679 91.3384 321.938 91.1839 322.232C91.0295 322.525 90.9348 322.846 90.9056 323.176C90.8763 323.507 90.913 323.84 91.0134 324.156C91.1139 324.472 91.2762 324.764 91.4907 325.017C91.7287 325.297 92.0241 325.523 92.357 325.679C92.6899 325.835 93.0524 325.917 93.4198 325.92C94.0103 325.92 94.5818 325.712 95.0344 325.332L105.099 316.932C105.381 316.695 105.608 316.4 105.764 316.066C105.919 315.732 106 315.368 106 315C106 314.631 105.919 314.268 105.764 313.934C105.608 313.6 105.381 313.304 105.099 313.068ZM87.5696 294.147C86.941 293.923 86.2496 293.956 85.6453 294.239C85.0409 294.522 84.5721 295.032 84.3405 295.659L70.9206 332.619C70.6972 333.248 70.7303 333.941 71.0129 334.546C71.2954 335.151 71.8047 335.621 72.4304 335.853C72.706 335.953 72.9971 336.002 73.2901 336C73.8074 336.001 74.3125 335.842 74.7365 335.545C75.1604 335.248 75.4828 334.828 75.6595 334.341L89.0794 297.381C89.3028 296.751 89.2697 296.059 88.9871 295.454C88.7045 294.848 88.1953 294.379 87.5696 294.147Z" fill="#F05D5D"/>
<path d="M161.376 324.24C160.048 324.24 158.864 323.952 157.824 323.376C156.8 322.784 155.992 321.976 155.4 320.952C154.808 319.928 154.512 318.768 154.512 317.472V307.128H157.776V317.568C157.776 318.32 157.928 318.968 158.232 319.512C158.552 320.056 158.984 320.48 159.528 320.784C160.088 321.072 160.704 321.216 161.376 321.216C162.064 321.216 162.672 321.072 163.2 320.784C163.728 320.48 164.144 320.056 164.448 319.512C164.768 318.968 164.928 318.328 164.928 317.592V307.128H168.216V317.496C168.216 318.792 167.92 319.952 167.328 320.976C166.736 321.984 165.928 322.784 164.904 323.376C163.896 323.952 162.72 324.24 161.376 324.24ZM172.807 324V307.584H175.951V324H172.807ZM170.095 315.168V312.408H178.663V315.168H170.095ZM184.199 324L179.087 312.408H182.543L186.215 321.96H184.511L188.207 312.408H191.543L186.455 324H184.199ZM198.186 324.24C196.97 324.24 195.89 323.984 194.946 323.472C194.002 322.944 193.25 322.224 192.69 321.312C192.146 320.4 191.874 319.36 191.874 318.192C191.874 317.04 192.138 316.016 192.666 315.12C193.21 314.208 193.946 313.488 194.874 312.96C195.802 312.416 196.834 312.144 197.97 312.144C199.09 312.144 200.074 312.4 200.922 312.912C201.786 313.408 202.458 314.096 202.938 314.976C203.434 315.84 203.682 316.824 203.682 317.928C203.682 318.136 203.666 318.352 203.634 318.576C203.618 318.784 203.578 319.024 203.514 319.296L193.77 319.32V316.968L202.05 316.944L200.778 317.928C200.746 317.24 200.618 316.664 200.394 316.2C200.186 315.736 199.874 315.384 199.458 315.144C199.058 314.888 198.562 314.76 197.97 314.76C197.346 314.76 196.802 314.904 196.338 315.192C195.874 315.464 195.514 315.856 195.258 316.368C195.018 316.864 194.898 317.456 194.898 318.144C194.898 318.848 195.026 319.464 195.282 319.992C195.554 320.504 195.938 320.904 196.434 321.192C196.93 321.464 197.506 321.6 198.162 321.6C198.754 321.6 199.29 321.504 199.77 321.312C200.25 321.104 200.666 320.8 201.018 320.4L202.866 322.248C202.306 322.904 201.618 323.4 200.802 323.736C200.002 324.072 199.13 324.24 198.186 324.24ZM211.098 324.24C209.914 324.24 208.85 323.976 207.906 323.448C206.962 322.92 206.218 322.2 205.674 321.288C205.13 320.376 204.858 319.352 204.858 318.216C204.858 317.064 205.13 316.032 205.674 315.12C206.218 314.208 206.962 313.488 207.906 312.96C208.866 312.416 209.93 312.144 211.098 312.144C212.01 312.144 212.85 312.312 213.618 312.648C214.386 312.984 215.05 313.464 215.61 314.088L213.594 316.128C213.29 315.792 212.922 315.536 212.49 315.36C212.074 315.184 211.61 315.096 211.098 315.096C210.522 315.096 210.002 315.232 209.538 315.504C209.09 315.76 208.73 316.12 208.458 316.584C208.202 317.032 208.074 317.568 208.074 318.192C208.074 318.8 208.202 319.344 208.458 319.824C208.73 320.288 209.09 320.656 209.538 320.928C210.002 321.184 210.522 321.312 211.098 321.312C211.626 321.312 212.098 321.224 212.514 321.048C212.946 320.856 213.314 320.584 213.618 320.232L215.658 322.272C215.066 322.912 214.386 323.4 213.618 323.736C212.85 324.072 212.01 324.24 211.098 324.24ZM224.831 324L220.343 318.024L224.807 312.408H228.431L223.199 318.744L223.319 317.208L228.671 324H224.831ZM217.439 324V306.648H220.583V324H217.439ZM230.119 324V306.648H233.263V324H230.119ZM236.048 324V312.408H239.216V324H236.048ZM237.632 310.536C237.12 310.536 236.696 310.368 236.36 310.032C236.024 309.68 235.856 309.248 235.856 308.736C235.856 308.24 236.024 307.816 236.36 307.464C236.696 307.112 237.12 306.936 237.632 306.936C238.16 306.936 238.584 307.112 238.904 307.464C239.24 307.816 239.408 308.24 239.408 308.736C239.408 309.248 239.24 309.68 238.904 310.032C238.584 310.368 238.16 310.536 237.632 310.536ZM249.801 324V317.352C249.801 316.664 249.585 316.104 249.153 315.672C248.721 315.24 248.161 315.024 247.473 315.024C247.025 315.024 246.625 315.12 246.273 315.312C245.921 315.504 245.641 315.776 245.433 316.128C245.241 316.48 245.145 316.888 245.145 317.352L243.921 316.728C243.921 315.816 244.113 315.024 244.497 314.352C244.897 313.664 245.441 313.128 246.129 312.744C246.833 312.36 247.625 312.168 248.505 312.168C249.353 312.168 250.113 312.384 250.785 312.816C251.457 313.232 251.985 313.784 252.369 314.472C252.753 315.144 252.945 315.872 252.945 316.656V324H249.801ZM242.001 324V312.408H245.145V324H242.001ZM260.326 329.136C259.094 329.136 258.006 328.912 257.062 328.464C256.118 328.032 255.366 327.416 254.806 326.616L256.798 324.624C257.246 325.152 257.742 325.552 258.286 325.824C258.846 326.112 259.518 326.256 260.302 326.256C261.278 326.256 262.046 326.008 262.606 325.512C263.182 325.016 263.47 324.328 263.47 323.448V320.544L263.998 318L263.494 315.456V312.408H266.614V323.4C266.614 324.552 266.342 325.552 265.798 326.4C265.27 327.264 264.534 327.936 263.59 328.416C262.646 328.896 261.558 329.136 260.326 329.136ZM260.182 323.688C259.142 323.688 258.206 323.44 257.374 322.944C256.542 322.432 255.886 321.736 255.406 320.856C254.942 319.976 254.71 318.992 254.71 317.904C254.71 316.816 254.942 315.84 255.406 314.976C255.886 314.112 256.542 313.432 257.374 312.936C258.206 312.424 259.142 312.168 260.182 312.168C261.046 312.168 261.806 312.336 262.462 312.672C263.134 313.008 263.662 313.472 264.046 314.064C264.43 314.64 264.638 315.32 264.67 316.104V319.752C264.638 320.52 264.422 321.208 264.022 321.816C263.638 322.408 263.11 322.872 262.438 323.208C261.782 323.528 261.03 323.688 260.182 323.688ZM260.806 320.832C261.382 320.832 261.878 320.712 262.294 320.472C262.726 320.216 263.062 319.872 263.302 319.44C263.542 318.992 263.662 318.488 263.662 317.928C263.662 317.352 263.542 316.848 263.302 316.416C263.062 315.984 262.726 315.648 262.294 315.408C261.878 315.152 261.382 315.024 260.806 315.024C260.23 315.024 259.726 315.152 259.294 315.408C258.862 315.648 258.526 315.992 258.286 316.44C258.046 316.872 257.926 317.368 257.926 317.928C257.926 318.472 258.046 318.968 258.286 319.416C258.526 319.848 258.862 320.192 259.294 320.448C259.726 320.704 260.23 320.832 260.806 320.832Z" fill="#303030"/>
<path d="M512.965 430.78C514.839 429.681 517.161 429.681 519.035 430.78L540.748 443.511C542.584 444.588 543.713 446.558 543.713 448.687V474.313C543.713 476.442 542.584 478.412 540.748 479.489L519.035 492.22C517.161 493.319 514.839 493.319 512.965 492.22L491.252 479.489C489.416 478.412 488.287 476.442 488.287 474.313V448.687C488.287 446.558 489.416 444.588 491.252 443.511L512.965 430.78Z" fill="white"/>
<path d="M531 453.5V461.501C531 461.899 530.837 462.28 530.546 462.561C530.255 462.843 529.86 463.001 529.448 463.001C529.037 463.001 528.642 462.843 528.351 462.561C528.06 462.28 527.897 461.899 527.897 461.501V457.125L518.135 466.564C517.991 466.703 517.82 466.814 517.631 466.89C517.443 466.966 517.24 467.005 517.036 467.005C516.832 467.005 516.63 466.966 516.441 466.89C516.253 466.814 516.081 466.703 515.937 466.564L511.864 462.626L503.654 470.564C503.362 470.843 502.967 471 502.555 471C502.144 471 501.749 470.843 501.456 470.564C501.312 470.425 501.197 470.259 501.119 470.077C501.04 469.894 501 469.699 501 469.501C501 469.304 501.04 469.108 501.119 468.926C501.197 468.744 501.312 468.578 501.456 468.439L510.766 459.438C510.91 459.298 511.081 459.187 511.27 459.112C511.458 459.036 511.66 458.997 511.864 458.997C512.069 458.997 512.271 459.036 512.459 459.112C512.648 459.187 512.819 459.298 512.963 459.438L517.036 463.376L525.699 455H521.174C520.762 455 520.368 454.842 520.077 454.561C519.786 454.28 519.622 453.898 519.622 453.5C519.622 453.102 519.786 452.721 520.077 452.439C520.368 452.158 520.762 452 521.174 452H529.448C529.86 452 530.255 452.158 530.546 452.439C530.837 452.721 531 453.102 531 453.5V453.5Z" fill="#F05D5D"/>
<path d="M357.376 471.24C356.048 471.24 354.864 470.952 353.824 470.376C352.8 469.784 351.992 468.976 351.4 467.952C350.808 466.928 350.512 465.768 350.512 464.472V454.128H353.776V464.568C353.776 465.32 353.928 465.968 354.232 466.512C354.552 467.056 354.984 467.48 355.528 467.784C356.088 468.072 356.704 468.216 357.376 468.216C358.064 468.216 358.672 468.072 359.2 467.784C359.728 467.48 360.144 467.056 360.448 466.512C360.768 465.968 360.928 465.328 360.928 464.592V454.128H364.216V464.496C364.216 465.792 363.92 466.952 363.328 467.976C362.736 468.984 361.928 469.784 360.904 470.376C359.896 470.952 358.72 471.24 357.376 471.24ZM374.903 471V464.352C374.903 463.664 374.687 463.104 374.255 462.672C373.823 462.24 373.263 462.024 372.575 462.024C372.127 462.024 371.727 462.12 371.375 462.312C371.023 462.504 370.743 462.776 370.535 463.128C370.343 463.48 370.247 463.888 370.247 464.352L369.023 463.728C369.023 462.816 369.215 462.024 369.599 461.352C369.999 460.664 370.543 460.128 371.231 459.744C371.935 459.36 372.727 459.168 373.607 459.168C374.455 459.168 375.215 459.384 375.887 459.816C376.559 460.232 377.087 460.784 377.471 461.472C377.855 462.144 378.047 462.872 378.047 463.656V471H374.903ZM367.103 471V459.408H370.247V471H367.103ZM385.476 471.24C384.404 471.24 383.444 470.976 382.596 470.448C381.748 469.92 381.076 469.2 380.58 468.288C380.1 467.376 379.86 466.352 379.86 465.216C379.86 464.064 380.1 463.032 380.58 462.12C381.076 461.208 381.74 460.488 382.572 459.96C383.42 459.432 384.388 459.168 385.476 459.168C386.308 459.168 387.052 459.336 387.708 459.672C388.38 460.008 388.916 460.48 389.316 461.088C389.732 461.68 389.956 462.352 389.988 463.104V467.232C389.956 467.984 389.74 468.664 389.34 469.272C388.94 469.88 388.404 470.36 387.732 470.712C387.06 471.064 386.308 471.24 385.476 471.24ZM386.004 468.336C386.596 468.336 387.108 468.208 387.54 467.952C387.988 467.68 388.332 467.312 388.572 466.848C388.828 466.368 388.956 465.816 388.956 465.192C388.956 464.584 388.828 464.048 388.572 463.584C388.332 463.104 387.988 462.736 387.54 462.48C387.108 462.208 386.604 462.072 386.028 462.072C385.436 462.072 384.916 462.208 384.468 462.48C384.036 462.752 383.692 463.12 383.436 463.584C383.196 464.048 383.076 464.584 383.076 465.192C383.076 465.816 383.196 466.368 383.436 466.848C383.692 467.312 384.044 467.68 384.492 467.952C384.94 468.208 385.444 468.336 386.004 468.336ZM391.908 471H388.788V467.88L389.292 465.048L388.764 462.264V453.648H391.908V471ZM400.233 471.24C399.017 471.24 397.937 470.984 396.993 470.472C396.049 469.944 395.297 469.224 394.737 468.312C394.193 467.4 393.921 466.36 393.921 465.192C393.921 464.04 394.185 463.016 394.713 462.12C395.257 461.208 395.993 460.488 396.921 459.96C397.849 459.416 398.881 459.144 400.017 459.144C401.137 459.144 402.121 459.4 402.969 459.912C403.833 460.408 404.505 461.096 404.985 461.976C405.481 462.84 405.729 463.824 405.729 464.928C405.729 465.136 405.713 465.352 405.681 465.576C405.665 465.784 405.625 466.024 405.561 466.296L395.817 466.32V463.968L404.097 463.944L402.825 464.928C402.793 464.24 402.665 463.664 402.441 463.2C402.233 462.736 401.921 462.384 401.505 462.144C401.105 461.888 400.609 461.76 400.017 461.76C399.393 461.76 398.849 461.904 398.385 462.192C397.921 462.464 397.561 462.856 397.305 463.368C397.065 463.864 396.945 464.456 396.945 465.144C396.945 465.848 397.073 466.464 397.329 466.992C397.601 467.504 397.985 467.904 398.481 468.192C398.977 468.464 399.553 468.6 400.209 468.6C400.801 468.6 401.337 468.504 401.817 468.312C402.297 468.104 402.713 467.8 403.065 467.4L404.913 469.248C404.353 469.904 403.665 470.4 402.849 470.736C402.049 471.072 401.177 471.24 400.233 471.24ZM407.673 471V459.408H410.817V471H407.673ZM410.817 464.592L409.593 463.776C409.737 462.352 410.153 461.232 410.841 460.416C411.529 459.584 412.521 459.168 413.817 459.168C414.377 459.168 414.881 459.264 415.329 459.456C415.777 459.632 416.185 459.928 416.553 460.344L414.585 462.6C414.409 462.408 414.193 462.264 413.937 462.168C413.697 462.072 413.417 462.024 413.097 462.024C412.425 462.024 411.873 462.24 411.441 462.672C411.025 463.088 410.817 463.728 410.817 464.592ZM425.458 471V464.352C425.458 463.664 425.242 463.104 424.81 462.672C424.378 462.24 423.818 462.024 423.13 462.024C422.682 462.024 422.282 462.12 421.93 462.312C421.578 462.504 421.298 462.776 421.09 463.128C420.898 463.48 420.802 463.888 420.802 464.352L419.578 463.728C419.578 462.816 419.77 462.024 420.154 461.352C420.538 460.664 421.066 460.128 421.738 459.744C422.426 459.36 423.21 459.168 424.09 459.168C424.97 459.168 425.746 459.36 426.418 459.744C427.106 460.128 427.642 460.656 428.026 461.328C428.41 462 428.602 462.776 428.602 463.656V471H425.458ZM417.658 471V453.648H420.802V471H417.658ZM435.982 471.24C434.926 471.24 433.974 470.976 433.126 470.448C432.278 469.92 431.614 469.2 431.134 468.288C430.654 467.376 430.414 466.352 430.414 465.216C430.414 464.064 430.654 463.032 431.134 462.12C431.614 461.208 432.278 460.488 433.126 459.96C433.974 459.432 434.926 459.168 435.982 459.168C436.814 459.168 437.558 459.336 438.214 459.672C438.87 460.008 439.39 460.48 439.774 461.088C440.174 461.68 440.39 462.352 440.422 463.104V467.28C440.39 468.048 440.174 468.728 439.774 469.32C439.39 469.912 438.87 470.384 438.214 470.736C437.558 471.072 436.814 471.24 435.982 471.24ZM436.558 468.336C437.438 468.336 438.15 468.048 438.694 467.472C439.238 466.88 439.51 466.12 439.51 465.192C439.51 464.584 439.382 464.048 439.126 463.584C438.886 463.104 438.542 462.736 438.094 462.48C437.662 462.208 437.15 462.072 436.558 462.072C435.982 462.072 435.47 462.208 435.022 462.48C434.59 462.736 434.246 463.104 433.99 463.584C433.75 464.048 433.63 464.584 433.63 465.192C433.63 465.816 433.75 466.368 433.99 466.848C434.246 467.312 434.59 467.68 435.022 467.952C435.47 468.208 435.982 468.336 436.558 468.336ZM439.342 471V467.88L439.846 465.048L439.342 462.264V459.408H442.462V471H439.342ZM436.582 458.16C435.974 458.16 435.438 458.024 434.974 457.752C434.51 457.48 434.142 457.12 433.87 456.672C433.598 456.224 433.462 455.712 433.462 455.136C433.462 454.56 433.598 454.04 433.87 453.576C434.142 453.112 434.51 452.752 434.974 452.496C435.438 452.224 435.966 452.088 436.558 452.088C437.15 452.088 437.67 452.224 438.118 452.496C438.582 452.752 438.95 453.112 439.222 453.576C439.494 454.024 439.63 454.536 439.63 455.112C439.63 455.688 439.494 456.208 439.222 456.672C438.95 457.136 438.582 457.504 438.118 457.776C437.67 458.032 437.158 458.16 436.582 458.16ZM436.582 456.216C436.87 456.216 437.11 456.112 437.302 455.904C437.51 455.696 437.614 455.432 437.614 455.112C437.614 454.808 437.51 454.552 437.302 454.344C437.094 454.136 436.854 454.032 436.582 454.032C436.246 454.032 435.974 454.136 435.766 454.344C435.574 454.552 435.478 454.808 435.478 455.112C435.478 455.416 435.574 455.68 435.766 455.904C435.974 456.112 436.246 456.216 436.582 456.216ZM445.244 471V453.648H448.388V471H445.244ZM451.173 471V453.648H454.317V471H451.173Z" fill="#303030"/>
<path d="M343.864 133.991C344.411 134.066 344.916 133.683 344.991 133.136L346.216 124.22C346.291 123.673 345.908 123.168 345.361 123.093C344.814 123.018 344.31 123.401 344.234 123.948L343.145 131.873L335.22 130.784C334.673 130.709 334.168 131.092 334.093 131.639C334.018 132.186 334.401 132.69 334.948 132.766L343.864 133.991ZM181.352 45.4889C203.038 48.742 229.411 52.2281 257.42 64.1699C285.408 76.1023 315.059 96.4942 343.203 133.604L344.797 132.396C316.441 95.0058 286.509 74.3977 258.205 62.3301C229.922 50.2719 203.295 46.758 181.648 43.5111L181.352 45.4889Z" fill="#9B9B9B"/>
<path d="M409.793 427.707C410.183 428.097 410.817 428.097 411.207 427.707L417.571 421.343C417.962 420.952 417.962 420.319 417.571 419.929C417.181 419.538 416.547 419.538 416.157 419.929L410.5 425.586L404.843 419.929C404.453 419.538 403.819 419.538 403.429 419.929C403.038 420.319 403.038 420.952 403.429 421.343L409.793 427.707ZM288.252 311.967C344.985 297.168 409.5 346.009 409.5 427H411.5C411.5 344.991 346.015 294.832 287.748 310.032L288.252 311.967Z" fill="#9B9B9B"/>
<path d="M197.364 283.991C197.911 284.066 198.415 283.683 198.491 283.136L199.716 274.22C199.791 273.673 199.408 273.168 198.861 273.093C198.314 273.018 197.809 273.401 197.734 273.948L196.645 281.873L188.72 280.784C188.173 280.709 187.668 281.092 187.593 281.639C187.518 282.186 187.9 282.69 188.448 282.766L197.364 283.991ZM293 168.5C291.359 168.5 287.744 169.143 282.892 170.351C277.995 171.57 271.734 173.394 264.743 175.813C250.768 180.649 233.828 187.884 219.019 197.473C204.231 207.049 191.442 219.054 185.963 233.481C180.451 247.997 182.413 264.761 196.703 283.604L198.297 282.396C184.337 263.989 182.612 247.941 187.833 234.191C193.089 220.352 205.456 208.638 220.106 199.152C234.735 189.679 251.513 182.507 265.397 177.703C272.336 175.302 278.54 173.496 283.375 172.292C288.256 171.076 291.641 170.5 293 170.5V168.5Z" fill="#9B9B9B"/>
</svg>
