<svg width="309" height="401" viewBox="0 0 309 401" fill="none" xmlns="http://www.w3.org/2000/svg">
<g filter="url(#filter0_d_205_543)">
<rect x="11" y="59.5" width="175" height="282" rx="20" fill="#E7E7E7"/>
</g>
<g filter="url(#filter1_d_205_543)">
<rect x="35" y="33.5" width="213" height="333" rx="20" fill="#EDEDED"/>
</g>
<g filter="url(#filter2_d_205_543)">
<rect x="62" y="11.5" width="236" height="378" rx="20" fill="#F4F4F4"/>
</g>
<rect x="83" y="29.5" width="34" height="34" rx="17" fill="#D9D9D9"/>
<rect x="132" y="29.5" width="147" height="34" rx="17" fill="#D9D9D9"/>
<rect x="83" y="110.5" width="157" height="10" rx="5" fill="#D9D9D9"/>
<rect x="83" y="132.5" width="191" height="10" rx="5" fill="#D9D9D9"/>
<rect x="83" y="154.5" width="169" height="10" rx="5" fill="#D9D9D9"/>
<rect x="83" y="176.5" width="131" height="10" rx="5" fill="#D9D9D9"/>
<rect x="83" y="230.5" width="10" height="10" rx="5" fill="#D9D9D9"/>
<rect x="83" y="252.5" width="10" height="10" rx="5" fill="#D9D9D9"/>
<rect x="83" y="274.5" width="10" height="10" rx="5" fill="#D9D9D9"/>
<rect x="112" y="230.5" width="68" height="10" rx="5" fill="#D9D9D9"/>
<rect x="112" y="252.5" width="89" height="10" rx="5" fill="#D9D9D9"/>
<rect x="112" y="274.5" width="62" height="10" rx="5" fill="#D9D9D9"/>
<rect x="245" y="327.5" width="34" height="34" rx="17" fill="#F05D5D"/>
<rect x="83" y="327.5" width="147" height="34" rx="17" fill="#3F3F3F"/>
<defs>
<filter id="filter0_d_205_543" x="0" y="48.5" width="197" height="304" filterUnits="userSpaceOnUse" color-interpolation-filters="sRGB">
<feFlood flood-opacity="0" result="BackgroundImageFix"/>
<feColorMatrix in="SourceAlpha" type="matrix" values="0 0 0 0 0 0 0 0 0 0 0 0 0 0 0 0 0 0 127 0" result="hardAlpha"/>
<feMorphology radius="1" operator="dilate" in="SourceAlpha" result="effect1_dropShadow_205_543"/>
<feOffset/>
<feGaussianBlur stdDeviation="5"/>
<feComposite in2="hardAlpha" operator="out"/>
<feColorMatrix type="matrix" values="0 0 0 0 0.508333 0 0 0 0 0.508333 0 0 0 0 0.508333 0 0 0 0.25 0"/>
<feBlend mode="normal" in2="BackgroundImageFix" result="effect1_dropShadow_205_543"/>
<feBlend mode="normal" in="SourceGraphic" in2="effect1_dropShadow_205_543" result="shape"/>
</filter>
<filter id="filter1_d_205_543" x="24" y="22.5" width="235" height="355" filterUnits="userSpaceOnUse" color-interpolation-filters="sRGB">
<feFlood flood-opacity="0" result="BackgroundImageFix"/>
<feColorMatrix in="SourceAlpha" type="matrix" values="0 0 0 0 0 0 0 0 0 0 0 0 0 0 0 0 0 0 127 0" result="hardAlpha"/>
<feMorphology radius="1" operator="dilate" in="SourceAlpha" result="effect1_dropShadow_205_543"/>
<feOffset/>
<feGaussianBlur stdDeviation="5"/>
<feComposite in2="hardAlpha" operator="out"/>
<feColorMatrix type="matrix" values="0 0 0 0 0.508333 0 0 0 0 0.508333 0 0 0 0 0.508333 0 0 0 0.25 0"/>
<feBlend mode="normal" in2="BackgroundImageFix" result="effect1_dropShadow_205_543"/>
<feBlend mode="normal" in="SourceGraphic" in2="effect1_dropShadow_205_543" result="shape"/>
</filter>
<filter id="filter2_d_205_543" x="51" y="0.5" width="258" height="400" filterUnits="userSpaceOnUse" color-interpolation-filters="sRGB">
<feFlood flood-opacity="0" result="BackgroundImageFix"/>
<feColorMatrix in="SourceAlpha" type="matrix" values="0 0 0 0 0 0 0 0 0 0 0 0 0 0 0 0 0 0 127 0" result="hardAlpha"/>
<feMorphology radius="1" operator="dilate" in="SourceAlpha" result="effect1_dropShadow_205_543"/>
<feOffset/>
<feGaussianBlur stdDeviation="5"/>
<feComposite in2="hardAlpha" operator="out"/>
<feColorMatrix type="matrix" values="0 0 0 0 0.4875 0 0 0 0 0.4875 0 0 0 0 0.4875 0 0 0 0.25 0"/>
<feBlend mode="normal" in2="BackgroundImageFix" result="effect1_dropShadow_205_543"/>
<feBlend mode="normal" in="SourceGraphic" in2="effect1_dropShadow_205_543" result="shape"/>
</filter>
</defs>
</svg>
